<svg width="646" height="411" viewBox="0 0 646 411" fill="none" xmlns="http://www.w3.org/2000/svg">
<g filter="url(#filter0_d_10_4)">
<path d="M260.438 223.188V278.363H4.33398L0.916016 235.639L149.109 0.53125H205.018L144.471 101.85L70.7402 223.188H260.438ZM220.154 0.53125V356H149.842V0.53125H220.154Z" fill="#272727"/>
<path d="M502.137 0.53125H575.135V235.395C575.135 262.738 569.275 285.769 557.557 304.486C546.001 323.204 529.969 337.283 509.461 346.723C489.116 356.163 465.678 360.883 439.148 360.883C412.618 360.883 389.018 356.163 368.348 346.723C347.84 337.283 331.727 323.204 320.008 304.486C308.452 285.769 302.674 262.738 302.674 235.395V0.53125H375.916V235.395C375.916 251.345 378.439 264.366 383.484 274.457C388.53 284.548 395.773 291.954 405.213 296.674C414.816 301.394 426.128 303.754 439.148 303.754C452.495 303.754 463.807 301.394 473.084 296.674C482.524 291.954 489.686 284.548 494.568 274.457C499.614 264.366 502.137 251.345 502.137 235.395V0.53125Z" fill="#254BFA"/>
</g>
<defs>
<filter id="filter0_d_10_4" x="0.916016" y="0.53125" width="644.219" height="410.352" filterUnits="userSpaceOnUse" color-interpolation-filters="sRGB">
<feFlood flood-opacity="0" result="BackgroundImageFix"/>
<feColorMatrix in="SourceAlpha" type="matrix" values="0 0 0 0 0 0 0 0 0 0 0 0 0 0 0 0 0 0 127 0" result="hardAlpha"/>
<feOffset dx="60" dy="40"/>
<feGaussianBlur stdDeviation="5"/>
<feComposite in2="hardAlpha" operator="out"/>
<feColorMatrix type="matrix" values="0 0 0 0 1 0 0 0 0 1 0 0 0 0 1 0 0 0 0.05 0"/>
<feBlend mode="normal" in2="BackgroundImageFix" result="effect1_dropShadow_10_4"/>
<feBlend mode="normal" in="SourceGraphic" in2="effect1_dropShadow_10_4" result="shape"/>
</filter>
</defs>
</svg>
